<?xml version="1.0" encoding="UTF-8"?>
<svg id="Laag_1" data-name="Laag 1" xmlns="http://www.w3.org/2000/svg" viewBox="0 0 841.89 595.28">
  <defs>
    <style>
      .cls-1 {
        fill: #103366;
      }
    </style>
  </defs>
  <polygon class="cls-1" points="39.12 312.38 72.44 312.38 72.44 242.16 125.53 242.16 125.53 215.73 72.44 215.73 72.44 173.12 141.72 173.12 141.72 146.22 39.12 146.22 39.12 312.38"/>
  <path class="cls-1" d="M440.59,231.31c6.74,3.1,15.51,6.23,26.29,9.4,7.94,2.22,14.17,4.26,18.7,6.09,4.51,1.83,8.29,4.31,11.29,7.5,3.01,3.17,4.51,7.22,4.51,12.13v.19c-.07,7.08-4.84,13.12-11.39,15.46,10.62,1.97,22.13,2.13,30.74-2.87,5.32-3.1,9.11-8.04,11.35-14.76,2.56-7.7,1.67-16.25-2.35-23.3-.4-.7-.8-1.32-1.2-1.84-4.93-6.37-10.79-11.11-17.61-14.28-6.83-3.17-15.65-6.37-26.43-9.54-7.94-2.38-14.07-4.47-18.45-6.3-4.35-1.83-8.01-4.21-10.95-7.15-2.94-2.94-4.4-6.62-4.4-11.06,0-6.34,1.94-11.18,5.83-14.54,3.89-3.31,9.07-4.98,15.58-4.98,7.48,0,13.47,1.85,17.98,5.58,4.51,3.73,6.94,8.45,7.27,14.17h36.64c-1.11-14.91-7.01-26.55-17.73-34.88-10.72-8.33-24.63-12.5-41.78-12.5-11.41,0-21.57,1.97-30.46,5.83-8.89,3.91-15.79,9.49-20.72,16.8-4.91,7.29-7.38,15.85-7.38,25.69,0,10.48,2.43,18.86,7.27,25.11,4.84,6.27,10.62,10.95,17.38,14.05Z"/>
  <path class="cls-1" d="M338.4,335.68c-14.58-4.84-26.32-14.21-35.3-24.16-7.31-6.97-15.23-16.85-23.61-30.64l-21.87-35.55h0c3.21-.24,6.39-.88,9.42-1.96,9.9-3.53,17.56-9.04,22.98-16.56,6.34-8.8,9.51-18.68,9.51-29.63,0-9.54-2.27-18.15-6.78-25.83-4.51-7.71-11.32-13.82-20.35-18.33-9.05-4.54-20-6.78-32.87-6.78h-62.35v166.14h33.33v-64.74h13.19l30.11,48.93c28.28,46.55,56.73,60.62,80.76,60.62,11.2,0,21.46-3.06,30.3-7.31,8.8-4.24,15.88-10.21,22.1-16.29-9.51,3.63-18.82,5.44-27.84,5.44-7.11,0-14.03-1.11-20.74-3.33ZM238.36,222.63h-27.84v-48.79h27.84c9.05,0,15.79,2.11,20.23,6.3,4.44,4.21,6.67,10.11,6.67,17.75s-2.22,13.84-6.67,18.19c-4.44,4.37-11.18,6.55-20.23,6.55Z"/>
  <path class="cls-1" d="M524.21,285.22c-6.37,3.68-13.84,5.05-21.46,5.05-12.74,0-28.92-5.24-37.28-8.3-6.24-2.29-12.66-4.13-19.22-5.17-39.75-6.28-59.32,13.84-74.11,29.05-6.69,6.87-13.01,13.38-20.35,16.92-3.26,1.57-8.91,4.28-16.53,4.28,1.74.74,3.49,1.44,5.32,2.04,13.62,4.51,28.23,3.87,43.6-1.86,5.38-2.01,10.49-4.69,15.33-7.77,4.61-2.92,8.73-6.63,13.58-9.14,13.84-7.17,28.71-4.84,42.95-.28,6.67,2.13,13.52,3.33,20.32,3.59,10.69.42,21.29-1.5,31.06-5.69.46-.23.9-.44,1.34-.67,1-.51,1.97-1.04,2.92-1.6,7.45-4.3,13.24-9.86,17.31-16.62,2.68-4.42,4.58-9.07,5.72-13.93-2.68,4.24-6.2,7.62-10.51,10.11Z"/>
  <rect class="cls-1" x="576.62" y="146.22" width="33.33" height="166.16"/>
  <rect class="cls-1" x="341.67" y="146.22" width="33.33" height="134.51"/>
  <path class="cls-1" d="M743.01,145.98h-38.79l-59.76,166.39h35l10.95-31.64h66.17l10.95,31.64h35.25l-59.76-166.39ZM699.45,254.07l24.05-69.51,24.03,69.51h-48.07Z"/>
  <g>
    <path class="cls-1" d="M70.62,432.82c-3.19,2.98-7.98,4.47-14.37,4.47h-11.45v24.19h-5.68v-56.75h17.13c6.33,0,11.11,1.49,14.33,4.47,3.22,2.98,4.83,6.93,4.83,11.85s-1.6,8.8-4.79,11.77ZM69.56,421.05c0-3.79-1.06-6.66-3.17-8.6-2.11-1.95-5.49-2.92-10.15-2.92h-11.45v22.89h11.45c8.88,0,13.31-3.79,13.31-11.37Z"/>
    <path class="cls-1" d="M98.71,409.36v21.19h21.51v4.71h-21.51v21.51h23.95v4.71h-29.63v-56.83h29.63v4.71h-23.95Z"/>
    <path class="cls-1" d="M184.76,461.48h-5.68l-31.42-47.74v47.74h-5.68v-56.75h5.68l31.42,47.65v-47.65h5.68v56.75Z"/>
    <path class="cls-1" d="M213.13,460.1c-2.84-1.3-5.07-3.11-6.7-5.44-1.62-2.33-2.49-4.92-2.6-7.79h6.01c.27,2.76,1.49,5.18,3.65,7.27,2.16,2.08,5.33,3.13,9.5,3.13,3.84,0,6.89-.99,9.13-2.96,2.25-1.97,3.37-4.48,3.37-7.51,0-2.44-.62-4.4-1.87-5.89-1.25-1.49-2.79-2.6-4.63-3.33-1.84-.73-4.38-1.53-7.63-2.39-3.79-1.03-6.79-2.03-9.01-3-2.22-.97-4.11-2.49-5.68-4.55-1.57-2.06-2.35-4.84-2.35-8.36,0-2.92.76-5.53,2.27-7.83,1.51-2.3,3.65-4.1,6.41-5.4,2.76-1.3,5.93-1.95,9.5-1.95,5.25,0,9.48,1.29,12.71,3.86,3.22,2.57,5.07,5.89,5.56,9.94h-6.17c-.38-2.33-1.65-4.4-3.82-6.21-2.17-1.81-5.09-2.72-8.77-2.72-3.41,0-6.25.91-8.52,2.72-2.27,1.81-3.41,4.29-3.41,7.43,0,2.38.62,4.3,1.87,5.76,1.24,1.46,2.8,2.57,4.67,3.33,1.87.76,4.4,1.57,7.59,2.44,3.68,1.03,6.66,2.04,8.93,3.04,2.27,1,4.19,2.53,5.76,4.59,1.57,2.06,2.35,4.82,2.35,8.28,0,2.65-.7,5.17-2.11,7.55-1.41,2.38-3.49,4.3-6.25,5.76-2.76,1.46-6.06,2.19-9.9,2.19s-7.02-.65-9.86-1.95Z"/>
    <path class="cls-1" d="M266.02,404.73v56.75h-5.68v-56.75h5.68Z"/>
    <path class="cls-1" d="M298.25,458.36c-4.28-2.46-7.65-5.9-10.11-10.31-2.46-4.41-3.69-9.4-3.69-14.98s1.23-10.57,3.69-14.98c2.46-4.41,5.83-7.85,10.11-10.31,4.27-2.46,9.04-3.69,14.29-3.69s10.09,1.23,14.37,3.69c4.27,2.46,7.63,5.9,10.07,10.31,2.44,4.41,3.65,9.4,3.65,14.98s-1.22,10.57-3.65,14.98c-2.44,4.41-5.79,7.85-10.07,10.31-4.28,2.46-9.07,3.69-14.37,3.69s-10.01-1.23-14.29-3.69ZM323.91,454.17c3.36-1.95,6.01-4.75,7.96-8.4s2.92-7.89,2.92-12.71-.97-9.04-2.92-12.66c-1.95-3.62-4.6-6.41-7.96-8.36-3.36-1.95-7.14-2.92-11.37-2.92s-8.01.97-11.37,2.92c-3.36,1.95-6.01,4.74-7.96,8.36-1.95,3.63-2.92,7.85-2.92,12.66s.97,9.05,2.92,12.71,4.6,6.45,7.96,8.4c3.36,1.95,7.14,2.92,11.37,2.92s8.01-.97,11.37-2.92Z"/>
    <path class="cls-1" d="M364.82,409.36v21.19h21.51v4.71h-21.51v21.51h23.95v4.71h-29.63v-56.83h29.63v4.71h-23.95Z"/>
    <path class="cls-1" d="M450.88,461.48h-5.68l-31.42-47.74v47.74h-5.68v-56.75h5.68l31.42,47.65v-47.65h5.68v56.75Z"/>
    <path class="cls-1" d="M535.14,448h-25.82l-4.95,13.48h-6.01l20.7-56.02h6.41l20.62,56.02h-6.01l-4.95-13.48ZM533.44,443.3l-11.2-30.69-11.2,30.69h22.41Z"/>
    <path class="cls-1" d="M596.27,408.14c4.49,2.27,7.93,5.55,10.31,9.82,2.38,4.28,3.57,9.36,3.57,15.26s-1.19,10.89-3.57,15.14c-2.38,4.25-5.82,7.5-10.31,9.74-4.49,2.25-9.88,3.37-16.16,3.37h-16.81v-56.75h16.81c6.28,0,11.66,1.14,16.16,3.41ZM598.18,450.56c4.14-4.14,6.21-9.92,6.21-17.33s-2.07-13.3-6.21-17.5c-4.14-4.19-10.16-6.29-18.06-6.29h-11.12v47.33h11.12c7.9,0,13.92-2.07,18.06-6.21Z"/>
    <path class="cls-1" d="M673.72,404.73l-21.51,56.75h-6.49l-21.51-56.75h6.17l18.59,50.58,18.75-50.58h6.01Z"/>
    <path class="cls-1" d="M696.05,404.73v56.75h-5.68v-56.75h5.68Z"/>
    <path class="cls-1" d="M722.76,409.36v21.19h21.51v4.71h-21.51v21.51h23.95v4.71h-29.63v-56.83h29.63v4.71h-23.95Z"/>
    <path class="cls-1" d="M773.37,460.1c-2.84-1.3-5.07-3.11-6.7-5.44-1.62-2.33-2.49-4.92-2.6-7.79h6.01c.27,2.76,1.49,5.18,3.65,7.27,2.16,2.08,5.33,3.13,9.5,3.13,3.84,0,6.89-.99,9.13-2.96,2.25-1.97,3.37-4.48,3.37-7.51,0-2.44-.62-4.4-1.87-5.89-1.25-1.49-2.79-2.6-4.63-3.33-1.84-.73-4.38-1.53-7.63-2.39-3.79-1.03-6.79-2.03-9.01-3-2.22-.97-4.11-2.49-5.68-4.55-1.57-2.06-2.35-4.84-2.35-8.36,0-2.92.76-5.53,2.27-7.83,1.52-2.3,3.65-4.1,6.41-5.4,2.76-1.3,5.93-1.95,9.5-1.95,5.25,0,9.48,1.29,12.71,3.86,3.22,2.57,5.07,5.89,5.56,9.94h-6.17c-.38-2.33-1.65-4.4-3.82-6.21-2.17-1.81-5.09-2.72-8.77-2.72-3.41,0-6.25.91-8.52,2.72-2.27,1.81-3.41,4.29-3.41,7.43,0,2.38.62,4.3,1.87,5.76,1.24,1.46,2.8,2.57,4.67,3.33,1.87.76,4.4,1.57,7.59,2.44,3.68,1.03,6.66,2.04,8.93,3.04,2.27,1,4.19,2.53,5.76,4.59,1.57,2.06,2.35,4.82,2.35,8.28,0,2.65-.7,5.17-2.11,7.55-1.41,2.38-3.49,4.3-6.25,5.76-2.76,1.46-6.06,2.19-9.9,2.19s-7.02-.65-9.86-1.95Z"/>
  </g>
</svg>