<?xml version="1.0" encoding="UTF-8"?>
<svg id="Laag_1" data-name="Laag 1" xmlns="http://www.w3.org/2000/svg" xmlns:xlink="http://www.w3.org/1999/xlink" viewBox="0 0 595.28 841.89">
  <defs>
    <style>
      .cls-1 {
        fill: url(#Naamloos_verloop_24);
      }
    </style>
    <radialGradient id="Naamloos_verloop_24" data-name="Naamloos verloop 24" cx="297.64" cy="420.94" fx="297.64" fy="420.94" r="229.58" gradientUnits="userSpaceOnUse">
      <stop offset="0" stop-color="#419bd8"/>
      <stop offset=".15" stop-color="#3d92ce"/>
      <stop offset=".41" stop-color="#327bb5"/>
      <stop offset=".73" stop-color="#20568d"/>
      <stop offset="1" stop-color="#103366"/>
    </radialGradient>
  </defs>
  <path class="cls-1" d="M150.4,426.24c34.66-35.62,80.48-82.74,173.61-68.02,15.36,2.45,30.4,6.71,45.05,12.07,19.55,7.16,57.5,19.49,87.32,19.49,17.17,0,34.14-3.03,48.66-10.97-19.55-96.68-105-169.47-207.42-169.47-116.81,0-211.55,94.74-211.55,211.62,0,17.1,2,33.75,5.87,49.63,4.32-1.61,7.94-3.29,10.78-4.71,17.23-8.26,32.01-23.49,47.69-39.63Z"/>
  <path class="cls-1" d="M508.19,400.23c-8.26,10-18.65,18.46-30.91,25.56-2.19,1.36-4.45,2.58-6.84,3.74-1.03.58-2.07,1.03-3.1,1.61-22.91,9.81-47.76,14.33-72.8,13.29-15.94-.58-31.95-3.36-47.56-8.39-33.37-10.65-68.22-16.13-100.61.71-11.36,5.87-21.04,14.52-31.82,21.36-11.36,7.23-23.3,13.49-35.95,18.2-28.72,10.71-56.34,13.88-82.48,9.29,27.36,85.25,107.2,146.95,201.49,146.95,116.88,0,211.62-94.74,211.62-211.62,0-6.97-.32-13.88-1.03-20.72Z"/>
</svg>